<?xml version="1.0" encoding="UTF-8" standalone="no"?>
<svg
   viewBox="0 0 7.0749998 2.9921188"
   version="1.1"
   id="svg43"
   width="7.0749998in"
   height="2.9921188in"
   xml:space="preserve"
   xmlns="http://www.w3.org/2000/svg"
   xmlns:svg="http://www.w3.org/2000/svg"
   xmlns:rdf="http://www.w3.org/1999/02/22-rdf-syntax-ns#"
   xmlns:cc="http://creativecommons.org/ns#"
   xmlns:dc="http://purl.org/dc/elements/1.1/"><title
     id="title205">Proof of Process (CPoP) Logo Asset Library</title><defs
     id="defs43"><rect
       x="282.97156"
       y="16.786448"
       width="722.61664"
       height="303.75479"
       id="rect58" /><rect
       x="282.97156"
       y="16.786448"
       width="722.61664"
       height="303.75479"
       id="rect205" /><rect
       x="282.97156"
       y="16.786448"
       width="722.61664"
       height="303.75479"
       id="rect207" /></defs><g
     id="g213"
     style="display:none"
     transform="matrix(0.02998001,0,0,0.02998701,1.4926039,1.5028027)"><g
       fill="none"
       stroke="#244e4d"
       stroke-width="0.12"
       opacity="0.7"
       id="geometry-chords-weave"
       transform="matrix(0.9972775,0,0,0.997277,0.12410284,-0.22487156)"><desc
         id="desc56">A complex geometric web of straight cords creating a circular rose-lathe pattern, symbolizing the underlying structure of the attestation process.</desc><title
         id="title56">Algorithmic Process Weave</title><g
         id="unit"
         style="display:inline"><line
           x1="45"
           y1="0"
           x2="-22.5"
           y2="38.970001"
           id="line1" /><line
           x1="45"
           y1="0"
           x2="-36.400002"
           y2="26.450001"
           id="line2" /><line
           x1="45"
           y1="0"
           x2="-43.299999"
           y2="12.36"
           id="line3" /></g><path
         id="full-web"
         d="M 0,0"
         style="display:inline" /><g
         id="repeated-unit"><use
           href="#unit"
           id="use3" /><use
           href="#unit"
           transform="rotate(12)"
           id="use4" /><use
           href="#unit"
           transform="rotate(24)"
           id="use5" /><use
           href="#unit"
           transform="rotate(36)"
           id="use6" /><use
           href="#unit"
           transform="rotate(48)"
           id="use7" /><use
           href="#unit"
           transform="rotate(60)"
           id="use8" /><use
           href="#unit"
           transform="rotate(72)"
           id="use9" /><use
           href="#unit"
           transform="rotate(84)"
           id="use10" /><use
           href="#unit"
           transform="rotate(96)"
           id="use11" /><use
           href="#unit"
           transform="rotate(108)"
           id="use12" /><use
           href="#unit"
           transform="rotate(120)"
           id="use13" /><use
           href="#unit"
           transform="rotate(132)"
           id="use14" /><use
           href="#unit"
           transform="rotate(144)"
           id="use15" /><use
           href="#unit"
           transform="rotate(156)"
           id="use16" /><use
           href="#unit"
           transform="rotate(168)"
           id="use17" /><use
           href="#unit"
           transform="scale(-1)"
           id="use18" /><use
           href="#unit"
           transform="rotate(-168)"
           id="use19" /><use
           href="#unit"
           transform="rotate(-156)"
           id="use20" /><use
           href="#unit"
           transform="rotate(-144)"
           id="use21" /><use
           href="#unit"
           transform="rotate(-132)"
           id="use22" /><use
           href="#unit"
           transform="rotate(-120)"
           id="use23" /><use
           href="#unit"
           transform="rotate(-108)"
           id="use24" /><use
           href="#unit"
           transform="rotate(-96)"
           id="use25" /><use
           href="#unit"
           transform="rotate(-84)"
           id="use26" /><use
           href="#unit"
           transform="rotate(-72)"
           id="use27" /><use
           href="#unit"
           transform="rotate(-60)"
           id="use28" /><use
           href="#unit"
           transform="rotate(-48)"
           id="use29" /><use
           href="#unit"
           transform="rotate(-36)"
           id="use30" /><use
           href="#unit"
           transform="rotate(-24)"
           id="use31" /><use
           href="#unit"
           transform="rotate(-12)"
           id="use32" /></g></g><g
       fill="#1a3a3a"
       id="nodes-concentric-intersections"
       style="display:inline"
       transform="matrix(0.99727751,0,0,0.99727699,0.124102,-0.2248714)"><desc
         id="desc55">A series of circular nodes positioned at the mathematical intersections of the process chords, representing verified human data points.</desc><title
         id="title55">Human Process Intersections</title><g
         id="intersection-ring"><circle
           cx="21.5"
           cy="0"
           r="0.60000002"
           id="circle32" /><circle
           cx="17.4"
           cy="12.6"
           r="0.60000002"
           id="circle33" /><circle
           cx="6.5999999"
           cy="20.4"
           r="0.60000002"
           id="circle34" /><circle
           cx="-6.5999999"
           cy="20.4"
           r="0.60000002"
           id="circle35" /><circle
           cx="-17.4"
           cy="12.6"
           r="0.60000002"
           id="circle36" /><circle
           cx="-21.5"
           cy="0"
           r="0.60000002"
           id="circle37" /><circle
           cx="-17.4"
           cy="-12.6"
           r="0.60000002"
           id="circle38" /><circle
           cx="-6.5999999"
           cy="-20.4"
           r="0.60000002"
           id="circle39" /><circle
           cx="6.5999999"
           cy="-20.4"
           r="0.60000002"
           id="circle40" /><circle
           cx="17.4"
           cy="-12.6"
           r="0.60000002"
           id="circle41" /></g><use
         href="#intersection-ring"
         transform="rotate(12)"
         id="use41" /><use
         href="#intersection-ring"
         transform="rotate(24)"
         id="use42" /></g><text
       xml:space="preserve"
       style="font-style:normal;font-variant:normal;font-weight:normal;font-stretch:normal;font-size:7.83201px;font-family:'Grantha Sangam MN';-inkscape-font-specification:'Grantha Sangam MN';writing-mode:lr-tb;direction:ltr;fill:#1a3a3a;fill-opacity:1;stroke-width:0.367126"
       x="66.34169"
       y="14.393913"
       id="text61"
       transform="scale(1.0001167,0.99988331)"><tspan
         id="tspan61"
         style="stroke-width:0.367126"
         x="66.34169"
         y="14.393913">TIMING ENTROPY PRIMITIVE</tspan></text><text
       xml:space="preserve"
       transform="matrix(0.34745374,0,0,0.34737263,-32.764286,-26.698684)"
       id="text57"
       style="font-size:64px;writing-mode:lr-tb;direction:ltr;white-space:pre;shape-inside:url(#rect58);display:inline;fill:#1a3a3a;fill-opacity:1"><tspan
         x="282.9707"
         y="75.17625"
         id="tspan2"><tspan
           style="font-family:'Grantha Sangam MN';-inkscape-font-specification:'Grantha Sangam MN'"
           id="tspan1">cpop•jitter</tspan></tspan></text></g><g
     transform="matrix(0.03255236,0,0,0.03255236,1.5012425,1.4989465)"
     fill="none"
     stroke="#244e4d"
     stroke-linecap="round"
     id="protocol-stream-weave"
     style="display:inline"><desc
       id="desc204">A series of concentric, dashed-offset paths representing the structured serialization of the CPOP wire format.</desc><title
       id="title204">Primary Codec Weave</title><g
       id="protocol-wire-uniform"
       stroke-width="0.8"><circle
         r="5"
         stroke-dasharray="2, 4"
         id="circle1"
         cx="0"
         cy="0" /><circle
         r="9"
         stroke-dasharray="4, 3"
         transform="rotate(45)"
         id="circle2"
         cx="0"
         cy="0" /><circle
         r="13"
         stroke-dasharray="6, 2"
         transform="rotate(90)"
         id="circle3"
         cx="0"
         cy="0" /><circle
         r="17"
         stroke-dasharray="8, 4"
         transform="rotate(135)"
         id="circle4"
         cx="0"
         cy="0" /><circle
         r="21"
         stroke-dasharray="10, 3"
         transform="scale(-1)"
         id="circle5"
         cx="0"
         cy="0" /><circle
         r="25"
         stroke-dasharray="12, 5"
         transform="rotate(-135)"
         id="circle6"
         cx="0"
         cy="0" /><circle
         r="29"
         stroke-dasharray="14, 2"
         transform="rotate(-90)"
         id="circle7"
         cx="0"
         cy="0" /><circle
         r="33"
         stroke-dasharray="16, 4"
         transform="rotate(-45)"
         id="circle8"
         cx="0"
         cy="0" /><circle
         r="37"
         stroke-dasharray="18, 3"
         transform="rotate(30)"
         id="circle9"
         cx="0"
         cy="0" /><circle
         r="41"
         stroke-dasharray="20, 6"
         transform="rotate(60)"
         id="circle10"
         cx="0"
         cy="0" /></g><g
       id="protocol-interleave"
       stroke-width="0.4"
       stroke-opacity="0.4"
       style="display:inline"><circle
         r="7"
         stroke-dasharray="1, 5"
         id="circle11"
         cx="0"
         cy="0" /><circle
         r="11"
         stroke-dasharray="1, 5"
         id="circle12"
         cx="0"
         cy="0" /><circle
         r="15"
         stroke-dasharray="1, 5"
         id="circle13"
         cx="0"
         cy="0" /><circle
         r="19"
         stroke-dasharray="1, 5"
         id="circle14"
         cx="0"
         cy="0" /><circle
         r="23"
         stroke-dasharray="1, 5"
         id="circle15"
         cx="0"
         cy="0" /><circle
         r="27"
         stroke-dasharray="1, 5"
         id="circle16"
         cx="0"
         cy="0" /><circle
         r="31"
         stroke-dasharray="1, 5"
         id="circle17"
         cx="0"
         cy="0" /><circle
         r="35"
         stroke-dasharray="1, 5"
         id="circle18"
         cx="0"
         cy="0" /><circle
         r="39"
         stroke-dasharray="1, 5"
         id="circle19"
         cx="0"
         cy="0" /></g><text
       xml:space="preserve"
       style="font-style:normal;font-variant:normal;font-weight:normal;font-stretch:normal;font-size:0.234831px;font-family:'Grantha Sangam MN';-inkscape-font-specification:'Grantha Sangam MN';writing-mode:lr-tb;direction:ltr;display:inline;fill:#1a3a3a;fill-opacity:1;stroke-width:0.0110077"
       x="3.6711941"
       y="1.9303821"
       id="text204"
       transform="matrix(30.719739,0,0,30.719739,-46.117778,-46.047244)"><tspan
         id="tspan204"
         style="stroke-width:0.0110077"
         x="3.6711941"
         y="1.9303821">WIRE FORMAT &amp; CODEC</tspan></text><text
       xml:space="preserve"
       transform="matrix(0.31999728,0,0,0.31999728,-45.64583,-24.321588)"
       id="text205"
       style="font-size:64px;writing-mode:lr-tb;direction:ltr;white-space:pre;shape-inside:url(#rect205);display:inline;fill:#1a3a3a;fill-opacity:1"><tspan
         x="282.9707"
         y="75.17625"
         id="tspan4"><tspan
           style="font-family:'Grantha Sangam MN';-inkscape-font-specification:'Grantha Sangam MN'"
           id="tspan3">cpop•protocol</tspan></tspan></text></g><g
     id="layer2"
     style="display:none"><path
       d="M 2.5081427,0.36717913 2.5122927,0.48641715 2.630169,0.48122515 2.625439,0.3658173 Z M 1.15846,0.50711671 C 0.71111016,0.37484357 0.37750905,0.90418895 0.27806765,1.202962 0.18397279,1.3377824 0.20292565,1.3979465 0.18134128,1.5332526 0.12004047,2.0435913 0.26099466,2.0920565 0.43973981,2.1665936 0.63967532,2.7952678 1.2634061,2.6965391 1.4723557,2.2666583 2.085034,2.4611465 2.2195001,2.0133511 2.2195001,2.0133511 c 0,0 0.014172,-0.1226304 0.3253981,-0.075775 L 2.5482982,1.7920397 2.838626,1.7763227 2.844256,1.4730442 2.7344254,1.4694242 2.734855,1.319885 2.5953573,1.325595 2.5956479,1.4783308 2.2040644,1.4885178 2.2001744,1.171766 h -0.186064 l -0.01318,-0.155086 -0.1566917,0.00933 0.00209,-0.20565057 0.1572805,-0.00512 -0.00337,-0.10779458 -0.1001906,0.00372 -4.091e-4,-0.11147977 0.1205988,-0.009197 -0.00469,-0.13026241 C 2.0333987,0.42111299 1.8491118,0.32005657 1.5930114,0.42543994 1.4166789,0.37199206 1.2930458,0.36773752 1.158459,0.50711027 Z M 1.480476,0.44755861 C 1.6586645,0.42622441 1.3597641,0.60648826 1.480354,0.78415187 1.6805793,1.066528 1.593673,1.0313057 1.594542,1.1624256 1.612766,1.2278736 1.643344,1.2312056 1.64586,1.0719237 1.6596448,0.94190121 1.523631,0.7920145 1.4980135,0.70488226 1.4720673,0.52857914 1.6953442,0.41300328 1.6942411,0.48249465 c 0.00105,0.0682746 7.719e-4,0.19315989 7.719e-4,0.19315989 l 0.1094548,0.004071 0.00508,0.11691096 -0.069408,0.013867 c 0,0 0.00593,0.1930964 -6.752e-4,0.4035993 0.00627,0.206247 -0.010503,0.2393722 -0.010503,0.2393722 0,0 -0.057579,0.024012 -0.1029364,-0.011414 C 1.5645252,1.3904245 1.4769297,1.3663645 1.407214,1.3302233 1.379762,1.2984363 1.397063,1.2361453 1.35227,1.2237543 c -0.050821,0.00939 -0.027436,0.038653 -0.017326,0.09356 -0.1834909,0.044993 -0.1905011,0.033991 -0.3271589,-0.1340567 -0.13441657,-0.032785 0.075636,0.1577562 0.088202,0.1777046 -0.00841,0.023706 -0.088713,0.021524 -0.069442,0.060307 C 1.144696,1.4637612 1.2781095,1.2174007 1.6379054,1.5195085 2.1936911,1.4805437 2.5414809,2.3455428 1.5268906,2.2170034 1.0503639,1.9449311 0.11703526,2.4623595 0.21223538,1.6083861 0.25885647,1.6759519 0.43129559,1.7244157 0.35006324,1.6563855 0.0829717,1.4845607 0.30308769,1.2647402 0.31988967,1.1983805 0.41061887,1.0110611 0.3573213,1.0277191 0.53731785,0.84106736 0.72331521,0.82553173 0.79092655,0.7954646 0.83943438,0.77125647 0.87983661,0.73861048 0.82099729,0.69892264 0.78608963,0.72211247 0.20640204,1.057651 1.0202545,0.28625559 1.1472442,0.59552558 c 0.013336,0.11204826 0.024698,0.14975499 0.084801,0.23666945 0.066465,0.074197 0.097326,0.13783221 0.09214,0.19965307 -0.017246,0.047367 0.00379,0.1527473 0.051245,-0.025576 C 1.2827883,0.84255256 0.94280598,0.40363224 1.4804813,0.44755982 Z m 0.4483665,0.87736479 -0.1240568,0.00101 5.32e-5,-0.134491 0.1230583,-2.963e-4 z M 2.1053083,1.3848764 2.1054296,1.614152 1.8997597,1.5078972 1.9032197,1.390082 Z m 0.5429244,0.1646025 0.00346,0.1143502 -0.1108848,0.00346 -6.046e-4,-0.1140479 z m -0.2023404,0.049811 0.00642,0.1698007 -0.1986003,0.00803 -0.003,-0.1751813 z M 1.4144256,2.2096423 C 1.3096301,2.7280984 0.49866792,2.6033207 0.50592807,2.1804542 0.82957914,2.1968224 1.1144593,2.1207119 1.4144256,2.2096423 Z"
       id="path1"
       style="fill:#244e4d;fill-opacity:1;stroke-width:0.00346517" /><path
       d="m 0.78330151,1.0140085 c -0.0417345,0.058586 -0.04946,0.1418287 -0.0174856,0.1596693 0.0200053,-0.1004507 0.0415984,-0.1536466 0.10572377,-0.18927253 0.0899807,-0.079146 0.21219052,0.031452 0.22430422,0.00719 -0.00666,-0.064279 -0.16104573,-0.15296401 -0.31254224,0.02242 z M 0.444395,1.4351273 C 0.59080789,1.6287321 0.66176108,1.712574 0.5406945,1.8011433 0.4774898,1.8258393 0.32582189,2.0701181 0.6162151,1.8207363 0.70798134,1.6222847 0.65073314,1.6486487 0.50710694,1.4470859 0.44506214,1.2782424 0.50392522,1.2955006 0.52846307,1.13187 0.49257877,1.1332626 0.39050044,1.3072269 0.444395,1.4351273 Z m 0.8527576,0.2713272 0.063221,-0.035629 c 0.061973,0.079948 0.065659,0.07481 0.1961996,0.1307568 0.1173902,0.00786 0.2551363,0.045669 0.3158514,0.2536954 0.01001,0.034274 0.033321,0.019318 0.038682,0.00241 0.025119,-0.079268 -0.077933,-0.088714 -0.014179,-0.1524686 0.024545,-0.00662 0.078845,-0.027224 0.082419,-0.056892 -0.053134,-0.028874 -0.080732,0.029899 -0.1270333,0.038279 C 1.7258424,1.7601224 1.6643764,1.7883263 1.5383249,1.7553322 1.4265101,1.7267202 1.3862286,1.6212253 1.3396954,1.5554585 1.3019203,1.5412876 1.3172739,1.5822534 1.3172739,1.6083864 1.3501982,1.6700926 1.234437,1.7016878 1.0928512,1.6534341 0.35959848,1.14704 0.96467026,1.8373404 1.2971529,1.7064569 Z M 0.71261543,1.9799278 c -0.0991659,0.087001 0.10994649,-0.020191 0.2525758,-0.056419 0.14246817,-0.045865 0.31125967,-0.012508 0.42093387,0.075487 0.1031834,0.033145 0.1676409,0.032852 0.2108757,0.036779 0.091939,0.00194 0.044089,-0.031157 0.013975,-0.041196 -0.1183868,-0.014739 -0.1800704,0.00178 -0.3280131,-0.09512 -0.2037871,-0.08832 -0.42783317,0.028906 -0.57034747,0.08047 z M 2.1353901,0.64853742 2.3363689,0.64506969 2.3329035,0.44409076 H 2.1353901 Z m 0.5386617,-0.0381165 -0.00157,0.12474557 h 0.138607 L 2.8103663,0.60768082 Z m -0.3134269,0.13167589 -0.00347,0.23216543 h 0.2356304 l -0.00346,-0.23563052 z m -0.2876076,0.10048935 0.00346,0.14553651 0.134915,-0.00169 2.261e-4,-0.14732571 z M 2.6696355,1.0175199 2.6690233,1.2084427 2.863072,1.2064221 2.8611805,1.0140495 Z M 2.3294385,1.1232635 V 1.313847 L 2.5200221,1.3103757 2.519695,1.1221065 Z"
       id="path2"
       style="fill:#234e4b;fill-opacity:0.4;stroke-width:0.00346517" /><text
       xml:space="preserve"
       style="font-style:normal;font-variant:normal;font-weight:normal;font-stretch:normal;font-size:0.248906px;font-family:'Grantha Sangam MN';-inkscape-font-specification:'Grantha Sangam MN';writing-mode:lr-tb;direction:ltr;display:inline;fill:#1a3a3a;fill-opacity:1;stroke-width:0.0116675"
       x="2.8621287"
       y="2.0294287"
       id="text206"
       transform="scale(1.0599373,0.94345205)"><tspan
         id="tspan206"
         style="stroke-width:0.0116675"
         x="2.8621287"
         y="2.0294287">HUMAN PROCESS ATTESTATION</tspan></text><text
       xml:space="preserve"
       transform="matrix(0.01041667,0,0,0.01041667,0.06307239,0.81346076)"
       id="text207"
       style="font-size:53.3333px;writing-mode:lr-tb;direction:ltr;white-space:pre;shape-inside:url(#rect207);display:inline;fill:#1a3a3a;fill-opacity:1"><tspan
         x="282.9707"
         y="65.444697"
         id="tspan6"><tspan
           style="font-family:'Grantha Sangam MN';-inkscape-font-specification:'Grantha Sangam MN'"
           id="tspan5">proof of process</tspan></tspan></text></g><metadata
     id="metadata205"><rdf:RDF><cc:Work
         rdf:about=""><dc:title>Proof of Process (CPoP) Logo Asset Library</dc:title><dc:date>2026-03-17</dc:date><dc:creator><cc:Agent><dc:title>David Condrey</dc:title></cc:Agent></dc:creator><dc:publisher><cc:Agent><dc:title>WritersLogic Inc</dc:title></cc:Agent></dc:publisher><dc:rights><cc:Agent><dc:title>Copyright 2026 WritersLogic Inc. Distributed under Apache 2.0.</dc:title></cc:Agent></dc:rights><dc:source>https://github.com/LF-Decentralized-Trust-labs/proof-of-process/tree/main/docs/identity</dc:source><dc:relation>C2PA, IETF RATS, Linux Foundation, WritersLogic.com</dc:relation><dc:language>en-US</dc:language><dc:subject><rdf:Bag><rdf:li>Proof-of-Process</rdf:li><rdf:li>CPoP</rdf:li><rdf:li>CPoP</rdf:li><rdf:li>Attestation</rdf:li><rdf:li>Digital Authorship</rdf:li><rdf:li>Codec</rdf:li><rdf:li>Jitter</rdf:li></rdf:Bag></dc:subject><dc:coverage>Decentralized Trust Protocols</dc:coverage><dc:description>Master identity assets for the Cryptographic Proof of Process (CPoP) protocol, including Jitter and Codec iconography.</dc:description><dc:contributor><cc:Agent><dc:title>David Condrey, WritersLogic Inc, Linux Foundation Decentralized Trust Community</dc:title></cc:Agent></dc:contributor><cc:license
           rdf:resource="https://raw.githubusercontent.com/LF-Decentralized-Trust-labs/proof-of-process/refs/heads/main/LICENSE" /><dc:identifier>urn:cpop:brand:master</dc:identifier></cc:Work></rdf:RDF></metadata></svg>
