<svg xmlns="http://www.w3.org/2000/svg" version="1.0" viewBox="0 0 1400 400"><path d="M329 84v7h6l7-1V79l-7-1h-6zm-135-3-6 2-3 2-3 2-3 2-2 3h-20l-6 2-7 1-6 4-7 3-5 6-6 6-2 5-3 6-7 3-6 3-5 6-6 6-3 7-4 7-1 7-1 6-3 4-3 4-2 5-2 4-1 9v8l-2 6-2 5-1 11v10l1 7 2 6 3 7 4 8 3 4 4 4 5 3 4 4 4 1 4 2 1 5 1 4 2 5 3 5 5 5 5 6 7 4 8 3 8 2 8 2h12l12-1 6-2 5-2 6-4 6-3 5-6 5-5 4-8 3-7h2l6 3 7 2 5 2 6 1 7 1h8l7-1 7-2 6-3 6-3 5-5 5-5 3-7 4-7v-4l1-1 2-1 4 1h3l11-1 11-2 2-1 3-1v-9l1-6 10-1h10l2-1 1-1 3-6 3-6 2-8 2-8v-5l-8-1h-7v-14h-16l-1 8v8h-46l-1-2v-6l1-4h5v-22h-22v-2l-1-1v-16h-16v-5l-1-5-1-4v-4l2-1 3-1h15v-12h-8l-1-2v-7l5-1h4V95h-15l-1-1-1-1V81h-19l-6 2-6 1-6-2-6-2h-6l-7-1zm19 6 4 1v2l-2 4-3 3-1 4-1 3v12l2 4 2 4 4 7 5 7 2 5 1 5v9l-1 8h2l1 1 2-1 1-1 1-4 1-5-1-5v-6l-2-5-2-5-6-9-5-9-1-5v-5l2-4 2-5 4-4 4-3 4-1h4l1 1v22h12l2 1 2 1v15l-1 1-1 1h-9v38l-2 4-2 3v18l-3 1-2 1h-5l-1-1-1-1-9-5-10-5-2-5-3-6h-4l-1 2-1 3 1 1 1 2v1l-1 2h-18l-2-1-2-2-3-2-3-2-4-6-3-5h-4l-1 2v1l1 4 2 3 5 5 4 5-2 2-3 2v4h1l1 1 7-3 8-2h11l11 1 8 3 8 3 7 5 7 6h9l9 1 5 2 5 1 8 4 7 3 4 5 5 5 2 6 2 5 1 6 1 6-1 5-2 5-2 4-2 5-4 4-4 4-7 4-7 3h-25l-15-5-14-5-9-2-9-3-9-2-8-1h-14l-9 1-8 2-8 2-8 2-7 1-6 1h-5l-5-1-5-3-5-2-6-5-5-6-4-8-4-8-1-6-1-6 1-8v-7l1-1 1-1 5 4 5 5 2 1h3l1-1h1v-3l-5-4-5-4-2-4-2-5v-15l2-4 2-4 3-5 4-5 1-4v-4l2-6 2-6 3-4 3-5 5-4 4-4 5-2 5-1h18l4-3 4-3 3-1 4-1 1-1 1-1v-3l-2-1-2-1-4 1-3 2-5 3-5 3h-4l-3-1h-2v-4l6-6 5-6 5-3 5-3 7-2 7-2h13v10l1 9 2 5 3 4 6 6 6 5 1 3 1 2 1 7 1 6 2 1h2l1-3 1-2v-7l-1-4-2-5-7-7-8-8-1-2-2-2v-13l2-5 2-4 4-3 4-2 4-2 4-1h9zm49 85 2 1v11l-8 1h-7v-14h1v-1h10zm19 20 1 1v17l-1 2-1 1-9-4-9-4-2-2-1-1v-10l1-1 1-1h20zm62 23v6l-6 1h-5l-1-1-2-1v-6l1-5 5-1 6-1 1 1h1zm-25 1h2v17h-2l-3 1h-6l-6-1-1-7v-10l1-1h14zm-135 60 7 2 6 2 7 1 1 2 1 2-2 5-3 6-5 5-5 5-5 3-4 3-8 3-8 2h-17l-9-3-9-2-5-3-5-3-4-4-4-5-2-5-3-6v-3h8l8-1 13-3 13-3h2l3-1h22z"/><path d="m148 141-3 1-4 4-4 4-3 4-2 5-1 3v2l1 2 2 2h1l2-1 2-6 1-5 4-4 4-4 4-1 4-1h4l5 1 5 2 1-1 1-1v-3l-4-2-4-2h-13zm-43 22-2 2-2 5-2 5-1 8v7l2 5 3 6 3 4 4 4 1 6 1 5 1 4 1 3v3l-1 2-3 4-4 4-4 1-3 2-1 1v2l1 6 2 6 2 1h2l1-1 1-1v-11h2l3-3 3-3 2-2 1-3h5l5 1 1-2v-1l-4-4-4-4-1-3-2-4-1-6v-6l-5-6-5-5-1-4-1-3v-7l1-6 3-6 4-5-1-2v-1h-5zm26 26v4l4 7 3 7 5 5 6 5 6 4 6 3 5 1 5 1h16l16-1 5 3 5 4 4 1 4 2 8 2 9 2 4 1 3 2 3 2 4 3 1 3 2 4 1 5 1 5 1 1h2l2-1 1-1v-7l-1-7 3-3 4-2v-5h-1l-2-1-4 3-3 2h-3l-4-3-3-3-5-3-5-2-8-1-8-2-7-3-6-3-3-4-3-4-1-3-1-3h-2l-1-1-2 1-1 1v7l-1 1-1 1h-27l-7-3-7-3-5-6-5-5-3-7-4-7h-4zm26 57-7 1-8 2-8 2-2 1-1 1v4h6l10-3 9-2h31l6 2 6 3 10 3 9 2h12v-4l-2-1-3-1-9-1-10-2-9-4-10-4-12-1h-12zM285 99v11h23V87h-23zm385 5-4 2-2 2-2 2-2 4-1 3v11h-10v12h10v53h14v-26l1-27h13v-12h-14v-5l1-5 2-2 1-2h12v-6l-1-6h-14zm162 0-4 2-2 2-2 2-2 4-1 3v11h-10v12h10v53h14v-26l1-27h13v-12h-14v-5l1-5 2-2 1-2h12v-6l-1-6h-14zm-488 8v7l2 1h8l6-1v-15h-16zm-33 8v26h26v-27h-25zm111 9-3 1-3 4-3 3v-9h-14v89h14v-32l3 3 4 3 3 2 3 1h7l7-1 4-3 5-3 3-4 3-5 2-8 1-7-1-9-1-8-2-4-2-4-3-4-4-3-3-2-4-2h-13zm15 14 4 3 1 4 1 4v13l-1 4-2 5-3 2-3 3-5 1h-4l-4-2-3-2-2-5-2-5v-17l2-4 2-4 3-2 4-2h8zm56-14-3 1-2 4-3 3v-9h-14v65h14v-41l2-4 3-4 3-2 4-2h10v-13h-11zm39 0-4 1-4 3-4 3-3 6-3 6-1 10v10l2 6 2 6 3 4 3 4 6 3 6 3h15l4-2 5-1 4-3 4-4 2-5 3-5 1-6 1-5v-7l-1-7-2-5-3-5-2-3-3-3-5-3-4-2-9-1h-9zm19 12 3 2 2 4 3 5v18l-3 4-2 4-4 2-3 2h-5l-5-1-3-2-2-3-2-4-2-4v-16l2-4 2-4 2-2 2-2h2l1-1h8zm50-12-4 1-4 3-4 3-3 6-3 6-1 10v10l2 6 2 6 3 4 3 4 6 3 6 3h15l4-2 5-1 4-3 4-4 2-5 3-5 1-6 1-5v-7l-1-7-2-5-3-5-2-3-3-3-5-3-4-2-9-1h-9zm19 12 3 2 2 4 3 5v18l-3 4-2 4-4 2-3 2h-5l-5-1-3-2-2-3-2-4-2-4v-16l2-4 2-4 2-2 2-2h2l1-1h8zm143-12-4 1-4 3-4 3-3 6-3 6-1 10v10l2 6 2 6 3 4 3 4 6 3 6 3h15l4-2 5-1 4-3 4-4 2-5 3-5 1-6 1-5v-7l-1-7-2-5-3-5-2-3-3-3-5-3-4-2-9-1h-9zm19 12 3 2 2 4 3 5v18l-3 4-2 4-4 2-3 2h-5l-5-1-3-2-2-3-2-4-2-4v-16l2-4 2-4 2-2 2-2h2l1-1h8zm151-12-3 1-3 4-3 3v-9h-14v89h14v-32l3 3 3 3 4 2 3 1h7l7-1 4-3 4-3 4-4 3-5 2-8 1-7-1-9-1-8-2-4-2-4-3-4-4-3-3-2-4-2h-13zm15 14 4 3 1 4 1 4v13l-1 4-2 5-3 2-3 3-5 1h-4l-4-2-3-2-2-5-2-5v-17l2-4 2-4 3-2 4-2h8zm56-14-3 1-2 4-3 3v-9h-14v65h14v-41l2-4 3-4 3-2 4-2h10v-13h-10zm39 0-4 1-4 3-4 3-3 6-3 6-1 10v10l2 6 2 6 3 4 3 4 6 3 6 3h15l4-2 5-1 4-3 4-4 2-5 3-5 1-6 1-5v-7l-1-7-2-5-3-5-2-3-3-3-5-3-4-2-10-1h-9zm19 12 3 2 2 4 3 5v18l-3 4-2 4-4 2-3 2h-5l-5-1-3-2-2-3-2-4-2-4v-16l2-4 2-4 2-2 3-2h1l2-1h8zm48-12-5 3-4 3-3 4-2 5-2 5v23l2 4 1 5 3 3 3 4 5 3 5 3h19l4-3 4-2 2-3 3-2 2-5 2-4 1-4v-3h-15v4l-1 3-2 3-3 2-2 2h-8l-4-2-3-2-2-5-2-4v-16l2-5 2-5 3-2 4-2h8l3 2 3 2 1 3 1 4h14v-5l-2-5-3-5-4-3-3-2-4-2-3-1h-15zm66 0-5 1-3 3-4 3-3 6-3 6v24l2 4 2 5 4 4 3 4 4 2 4 2 8 1h7l5-1 4-1 4-3 4-3 3-4 3-4v-4h-13l-1 2-1 2-3 2-4 2h-10l-3-2-4-2-2-4-2-4v-3l-1-3h45v-8l-1-9-2-5-3-5-3-3-4-3-4-2-5-2h-15zm19 12 3 2 2 5 2 4-1 1-1 1h-14l-15-1 1-2v-3l2-2 2-3 3-2 2-2h10zm44-13-3 1-4 2-3 3-2 4-2 4v8l2 4 1 3 5 3 4 3 9 2 10 2 2 2 3 1 1 3v2l-1 3-1 2-4 2-3 1h-5l-4-1-2-2-3-2v-3l-1-3h-14v5l2 5 3 5 4 2 4 3 3 1 4 1h8l9-1 4-2 5-2 3-4 2-4 1-4v-8l-1-4-3-3-2-2-4-2-4-2-10-2-9-3-2-2-2-2v-3l2-3 3-2 3-1h4l3 1 4 2 1 3 1 3h14v-5l-2-4-2-4-3-2-4-3-3-1-3-1h-16zm59 0-3 1-4 2-3 3-2 4-2 4v8l2 4 1 3 5 3 4 3 9 2 10 2 2 2 3 1 1 3v2l-1 3-1 2-4 2-3 1h-5l-4-1-2-2-3-2v-3l-1-3h-14v5l2 5 3 5 4 2 4 3 3 1 4 1h8l9-1 4-2 5-2 3-4 2-4 1-4v-8l-1-4-3-3-2-2-4-2-4-2-10-2-9-3-2-2-2-2v-3l2-3 3-2 3-1h4l3 1 4 2 1 3 1 3h14v-5l-2-4-2-4-3-2-4-3-3-1-3-1h-16zM279 139v8h7l8-1v-16h-15zm64 11v12l1 9 10 1h10l1-1 1-1v-18l-1-1v-2h-21zm355 7v6h33v-12h-33zm162 0v6h33v-12h-33zm-554 5v11l1 9 10 1h11v-22h-21zm435 90-3 1-3 2-4 2-3 5-2 5v14l2 4 3 5 4 2 4 3h5l4 1 4-1 4-1 3-2 4-2 2-4 2-3 1-5 1-5-1-6-2-6-4-3-3-4-5-1-5-2h-4zm14 6 3 2 2 3 3 3v15l-3 3-2 2-3 3-3 2h-10l-3-2-3-3-2-2-2-3v-15l2-3 2-2 3-3 3-2h10zm35-6-3 1-3 2-4 2-2 4-3 5-1 5v5l1 4 1 4 4 4 3 4 3 2 4 1h6l6 1 4-3 4-2 1-2v-1l-2-1-2-1-3 2-2 2-5 1h-5l-3-1-4-2-3-5-2-4v-6l1-7 2-3 2-2 3-3 3-2h8l4 2 4 2 2-1 1-2-2-2-3-2-4-1-4-1h-4zm70 1-4 1-2 2-2 2v9l2 2 2 3 6 2 5 2 3 2 2 1v8l-3 2-2 2h-6l-2-1-3-1v-2h-3l-1 2-1 1 2 3 3 2h4l4 1 4-1 4-1 2-3 3-2 1-4v-6l-1-2-2-2-3-3-5-1-6-2-2-2-2-2v-5l2-2 3-2h6l3 2 3 1 2-1 1-2-1-1-1-2-4-1-3-1h-4zm32 0-4 1-2 2-2 2v9l2 2 2 3 6 2 5 2 3 2 2 1v8l-3 2-2 2h-6l-2-1-3-1v-2h-3l-1 2-1 1 2 3 3 2h4l4 1 4-1 4-1 2-3 3-2 1-4v-6l-1-2-2-2-3-3-5-1-6-2-2-2-2-2v-5l2-2 3-2h6l3 2 3 1 2-1 1-2-1-1-1-2-4-1-3-1h-4zm207 0-4 1-2 2-2 2v9l2 2 2 3 6 2 5 2 3 2 2 1v8l-3 2-2 2h-6l-2-1-3-1v-2h-3l-1 2-1 1 2 3 3 2h4l4 1 4-1 4-1 2-3 3-2 1-4v-6l-1-2-3-2-2-3-5-1-6-2-2-2-2-2v-5l2-2 3-2h6l3 2 3 1 2-1 1-2-1-1-1-2-4-1-4-1h-4zm162-1-3 1-3 2-4 2-3 5-2 5v14l2 4 3 5 4 2 5 3h4l4 1 4-1 4-1 3-2 4-2 2-4 2-3 1-5 1-5-1-6-2-6-4-3-3-4-5-1-5-2h-4zm14 6 3 2 2 3 2 3v15l-2 3-2 2-3 3-3 2h-10l-3-2-3-3-2-2-2-3v-15l2-3 2-2 3-3 3-2h10zm-875 16v21h5v-20h23v20h5v-42h-5v17h-23v-17h-5zm42-5 1 17 2 3 2 2 4 3 5 2h5l4-1 3-3 3-2 2-3 1-3v-31h-5v32l-4 3-3 3h-8l-2-2-2-1-2-4-1-3v-28h-5zm41 5v21h6v-34l8 17 7 17h3l3-7 3-8 3-8 4-9 1-1 1-1v34h5v-42h-8l-7 16-6 16-1-1h-1l-6-15-7-16h-8zm66-18-2 3-7 17-8 17v2h6l2-5 1-5h22l2 5 2 5h6l-3-6-2-6-7-15-6-15h-5zm7 14 4 9v1h-16v-1l1-2 3-8 3-8h2zm22 4v21h5v-34h1l1 1 11 16 11 17h7v-42h-5v34h-2l-11-17-11-17h-7zm79 0v21h5v-19h12l4-2 4-1 1-4 2-3v-3l-2-4-1-3-4-1-4-2h-17zm20-14 2 1v7l-2 1-2 2h-13v-13h13zm15 14v21h5v-19h7l5 10 5 9h7l-3-5-2-5-3-4-3-4v-2l3-1 3-1 2-3 2-3v-4l-2-3-1-4-4-1-4-2h-17zm20-14 2 1v7l-2 1-2 2h-13v-13h13zm106 14v21h28v-5h-23v-14h20v-5h-20v-13h22v-5h-27zm144-18-2 3-7 17-8 17v2h6l2-5 1-5h22l2 5 2 5h6l-3-6-2-6-7-15-6-15h-5zm7 14 4 9v1h-16v-1l1-2 3-8 3-8h2zm17-14v2h14v37h5v-37h28v37h5v-37h13v-5h-65zm71 18v21h28v-5h-23v-14h20v-5h-20v-13h22v-5h-27zm63-18v2h14v37h5v-37h13v-5h-32zm50 0-2 3-7 17-8 17v2h6l2-5 1-5h22l2 5 2 5h6l-3-6-2-6-7-15-6-15h-5zm7 14 4 9v1h-16v-1l1-2 3-8 3-8h2zm17-14v2h14v37h5v-37h13v-5h-32zm38 18v21h5v-42h-5zm65 0v21h5v-34h1l1 1 11 16 11 17h7v-42h-5v34h-2l-11-17-11-17h-7z"/></svg>